<mxfile host="app.diagrams.net" modified="2024-06-05T11:10:20.065Z" agent="Mozilla/5.0 (Windows NT 10.0; Win64; x64) AppleWebKit/537.36 (KHTML, like Gecko) Chrome/125.0.0.0 Safari/537.36" etag="u7XsrSYDBZzvJfhmufLK" version="23.1.5" type="github">
  <diagram name="Страница — 1" id="n5297YDXWTuSqS-TeUuD">
    <mxGraphModel dx="1562" dy="818" grid="1" gridSize="10" guides="1" tooltips="1" connect="1" arrows="1" fold="1" page="1" pageScale="1" pageWidth="2339" pageHeight="3300" math="0" shadow="0">
      <root>
        <mxCell id="0" />
        <mxCell id="1" parent="0" />
        <mxCell id="Zt0sIPypEy9pdhqAK2nU-18" style="edgeStyle=orthogonalEdgeStyle;rounded=0;orthogonalLoop=1;jettySize=auto;html=1;exitX=0;exitY=0.5;exitDx=0;exitDy=0;entryX=1;entryY=0.5;entryDx=0;entryDy=0;" edge="1" parent="1" source="Zt0sIPypEy9pdhqAK2nU-1" target="Zt0sIPypEy9pdhqAK2nU-7">
          <mxGeometry relative="1" as="geometry" />
        </mxCell>
        <mxCell id="Zt0sIPypEy9pdhqAK2nU-19" style="edgeStyle=orthogonalEdgeStyle;rounded=0;orthogonalLoop=1;jettySize=auto;html=1;exitX=0.5;exitY=0;exitDx=0;exitDy=0;entryX=0.5;entryY=1;entryDx=0;entryDy=0;" edge="1" parent="1" source="Zt0sIPypEy9pdhqAK2nU-1" target="Zt0sIPypEy9pdhqAK2nU-4">
          <mxGeometry relative="1" as="geometry" />
        </mxCell>
        <mxCell id="Zt0sIPypEy9pdhqAK2nU-1" value="&lt;font style=&quot;font-size: 16px;&quot;&gt;МК&lt;/font&gt;" style="rounded=1;whiteSpace=wrap;html=1;" vertex="1" parent="1">
          <mxGeometry x="620" y="390" width="180" height="130" as="geometry" />
        </mxCell>
        <mxCell id="Zt0sIPypEy9pdhqAK2nU-2" value="Трансформатор напряжения х3" style="whiteSpace=wrap;html=1;aspect=fixed;" vertex="1" parent="1">
          <mxGeometry x="890" y="490" width="110" height="110" as="geometry" />
        </mxCell>
        <mxCell id="Zt0sIPypEy9pdhqAK2nU-3" value="Трансформатор тока х3" style="whiteSpace=wrap;html=1;aspect=fixed;" vertex="1" parent="1">
          <mxGeometry x="890" y="340" width="110" height="110" as="geometry" />
        </mxCell>
        <mxCell id="Zt0sIPypEy9pdhqAK2nU-4" value="RS-485 (опционально)" style="rounded=0;whiteSpace=wrap;html=1;" vertex="1" parent="1">
          <mxGeometry x="650" y="280" width="120" height="70" as="geometry" />
        </mxCell>
        <mxCell id="Zt0sIPypEy9pdhqAK2nU-17" style="edgeStyle=orthogonalEdgeStyle;rounded=0;orthogonalLoop=1;jettySize=auto;html=1;exitX=0.5;exitY=0;exitDx=0;exitDy=0;entryX=0.5;entryY=1;entryDx=0;entryDy=0;" edge="1" parent="1" source="Zt0sIPypEy9pdhqAK2nU-5" target="Zt0sIPypEy9pdhqAK2nU-1">
          <mxGeometry relative="1" as="geometry" />
        </mxCell>
        <mxCell id="Zt0sIPypEy9pdhqAK2nU-5" value="Блок питания" style="rounded=0;whiteSpace=wrap;html=1;" vertex="1" parent="1">
          <mxGeometry x="655" y="570" width="110" height="70" as="geometry" />
        </mxCell>
        <mxCell id="Zt0sIPypEy9pdhqAK2nU-14" style="edgeStyle=orthogonalEdgeStyle;rounded=0;orthogonalLoop=1;jettySize=auto;html=1;exitX=0;exitY=0.5;exitDx=0;exitDy=0;" edge="1" parent="1" source="Zt0sIPypEy9pdhqAK2nU-6" target="Zt0sIPypEy9pdhqAK2nU-2">
          <mxGeometry relative="1" as="geometry" />
        </mxCell>
        <mxCell id="Zt0sIPypEy9pdhqAK2nU-6" value="&amp;nbsp;Входы напряжения&amp;nbsp;&lt;div&gt;40~400AC фазное или 70~690АС линейное&lt;/div&gt;&lt;div&gt;3Р или 4Р&lt;/div&gt;" style="rounded=0;whiteSpace=wrap;html=1;" vertex="1" parent="1">
          <mxGeometry x="1070" y="480" width="120" height="130" as="geometry" />
        </mxCell>
        <mxCell id="Zt0sIPypEy9pdhqAK2nU-7" value="Семи-сегментный индикатор + светодиоды" style="rounded=0;whiteSpace=wrap;html=1;" vertex="1" parent="1">
          <mxGeometry x="400" y="390" width="130" height="130" as="geometry" />
        </mxCell>
        <mxCell id="Zt0sIPypEy9pdhqAK2nU-16" style="edgeStyle=orthogonalEdgeStyle;rounded=0;orthogonalLoop=1;jettySize=auto;html=1;exitX=0;exitY=0.5;exitDx=0;exitDy=0;entryX=0.5;entryY=1;entryDx=0;entryDy=0;" edge="1" parent="1" source="Zt0sIPypEy9pdhqAK2nU-8" target="Zt0sIPypEy9pdhqAK2nU-5">
          <mxGeometry relative="1" as="geometry" />
        </mxCell>
        <mxCell id="Zt0sIPypEy9pdhqAK2nU-8" value="Вход питания: 90-290АС или 12~24DC" style="whiteSpace=wrap;html=1;aspect=fixed;" vertex="1" parent="1">
          <mxGeometry x="1080" y="640" width="100" height="100" as="geometry" />
        </mxCell>
        <mxCell id="Zt0sIPypEy9pdhqAK2nU-12" style="edgeStyle=orthogonalEdgeStyle;rounded=0;orthogonalLoop=1;jettySize=auto;html=1;exitX=0;exitY=0.5;exitDx=0;exitDy=0;entryX=1;entryY=0.5;entryDx=0;entryDy=0;" edge="1" parent="1" source="Zt0sIPypEy9pdhqAK2nU-10" target="Zt0sIPypEy9pdhqAK2nU-3">
          <mxGeometry relative="1" as="geometry" />
        </mxCell>
        <mxCell id="Zt0sIPypEy9pdhqAK2nU-10" value="Входы для тока&lt;br&gt;до 5 А для транфсорматоров&lt;br&gt;и 100 мВ для шунтов&amp;nbsp;" style="whiteSpace=wrap;html=1;aspect=fixed;" vertex="1" parent="1">
          <mxGeometry x="1070" y="335" width="120" height="120" as="geometry" />
        </mxCell>
        <mxCell id="Zt0sIPypEy9pdhqAK2nU-13" style="edgeStyle=orthogonalEdgeStyle;rounded=0;orthogonalLoop=1;jettySize=auto;html=1;exitX=0;exitY=0.5;exitDx=0;exitDy=0;entryX=1.007;entryY=0.382;entryDx=0;entryDy=0;entryPerimeter=0;" edge="1" parent="1" source="Zt0sIPypEy9pdhqAK2nU-3" target="Zt0sIPypEy9pdhqAK2nU-1">
          <mxGeometry relative="1" as="geometry" />
        </mxCell>
        <mxCell id="Zt0sIPypEy9pdhqAK2nU-15" style="edgeStyle=orthogonalEdgeStyle;rounded=0;orthogonalLoop=1;jettySize=auto;html=1;exitX=0;exitY=0.5;exitDx=0;exitDy=0;entryX=1.011;entryY=0.591;entryDx=0;entryDy=0;entryPerimeter=0;" edge="1" parent="1" source="Zt0sIPypEy9pdhqAK2nU-2" target="Zt0sIPypEy9pdhqAK2nU-1">
          <mxGeometry relative="1" as="geometry" />
        </mxCell>
      </root>
    </mxGraphModel>
  </diagram>
</mxfile>
